<?xml version="1.0" standalone="no"?>
<!DOCTYPE svg PUBLIC "-//W3C//DTD SVG 20010904//EN"
 "http://www.w3.org/TR/2001/REC-SVG-20010904/DTD/svg10.dtd">
<svg version="1.0" xmlns="http://www.w3.org/2000/svg"
 width="50.000000pt" height="50.000000pt" viewBox="0 0 50.000000 50.000000"
 preserveAspectRatio="xMidYMid meet">

<g transform="translate(0.000000,50.000000) scale(0.100000,-0.100000)"
fill="#000000" stroke="none">
<path d="M205 377 c-27 -27 -40 -33 -65 -29 -30 4 -70 -19 -70 -40 0 -5 -16
-24 -35 -42 -38 -36 -44 -66 -23 -111 22 -49 51 -55 248 -55 l182 0 29 29 c46
46 37 106 -20 136 -20 10 -31 25 -35 49 -4 22 -20 46 -42 65 -29 26 -43 31
-85 31 -44 0 -55 -4 -84 -33z m138 2 c29 -13 57 -58 57 -93 0 -17 5 -26 15
-26 24 0 65 -46 65 -71 0 -13 -10 -33 -22 -46 -21 -22 -26 -23 -205 -23 -182
0 -184 0 -208 25 -33 32 -32 70 3 105 16 15 36 40 45 54 18 27 54 35 74 15 8
-8 16 -2 29 19 9 17 27 35 38 41 28 13 80 13 109 0z"/>
</g>
</svg>
